<?xml version="1.0" encoding="UTF-8"?>
<svg id="Calque_1" data-name="Calque 1" xmlns="http://www.w3.org/2000/svg" xmlns:xlink="http://www.w3.org/1999/xlink" viewBox="0 0 1000 1000">
  <defs>
    <style>
      .cls-1 {
        fill: #048b9a;
      }

      .cls-2 {
        fill: #fff;
      }

      .cls-3, .cls-4 {
        fill: none;
      }

      .cls-5 {
        clip-path: url(#clippath);
      }

      .cls-4 {
        stroke: #d8ff9a;
        stroke-miterlimit: 10;
        stroke-width: 6px;
      }
    </style>
    <clipPath id="clippath">
      <rect class="cls-3" x="-95.03" y="1446.1" width="1000" height="1000"/>
    </clipPath>
  </defs>
  <g class="cls-5">
    <path class="cls-4" d="M-159.12,1038.05h0c613.71,0,1111.97,498.26,1111.97,1111.97H-159.12v-1111.97h0Z" transform="translate(2039.35 1567.72) rotate(103.06)"/>
  </g>
  <rect class="cls-2" x="-5.2" y="-11.97" width="1010.39" height="1023.95"/>
  <g>
    <g>
      <path class="cls-1" d="M204.9,563.3h0c32.43,0,62-12.21,84.4-32.26v32.26h42.2c0-20.2-14.19-37.07-33.14-41.22,20.58-22.51,33.14-52.48,33.14-85.39h0s-126.6,0-126.6,0v126.6Z"/>
      <path class="cls-1" d="M397.29,503.14l27.79-26.06c.81-.58.35-1.62-.58-1.62h-14.36c-1.27,0-2.32.46-3.36,1.39l-25.59,25.24v-44.24c0-1.04-.58-1.62-1.62-1.62h-10.19c-1.04,0-1.62.58-1.62,1.62v79.09c0,1.04.58,1.62,1.62,1.62h10.19c1.04,0,1.62-.58,1.62-1.62v-20.61l6.83-5.33,20.61,25.71c1.27,1.39,2.08,1.85,4.05,1.85h13.32c.93,0,1.51-.93.69-1.74l-29.41-33.7Z"/>
      <path class="cls-1" d="M486.58,529.54c-1.27-4.17-1.51-8.45-1.51-13.09v-20.15c0-15.63-12.39-21.77-26.06-21.77-11.58,0-19.45,3.13-27.21,8.8-.81.58-1.04,1.74-.23,2.66l4.52,6.37c.58.81,1.85.93,2.78.35,6.48-4.05,11.7-5.56,20.15-5.56,6.95,0,12.62,2.2,12.62,7.64v1.39l-20.38,2.66c-14.24,1.85-22.7,9.26-22.7,20.96s9.26,18.76,22.58,18.76c9.26,0,16.56-1.97,22.23-7.41h.58l2.89,6.37c.35.93,1.04,1.27,1.97.93l8.22-2.66c1.27-.35,1.39-1.39,1.04-2.32l-1.51-3.94ZM471.64,518.08c-4.05,5.44-10.31,8.8-19.11,8.8-7.29,0-10.54-3.01-10.54-7.76,0-4.05,2.9-7.18,9.26-8.22l20.38-3.36v10.54Z"/>
      <path class="cls-1" d="M564.74,474.54c-7.3,0-14.71,3.01-20.15,9.38-3.59-5.56-10.07-9.38-17.83-9.38-6.83,0-12.16,2.32-16.1,6.95h-.69l-1.16-4.52c-.23-1.04-.81-1.51-1.62-1.51h-8.34c-1.04,0-1.62.58-1.62,1.62v59.75c0,1.16.46,1.74,1.27,1.74h10.65c1.04,0,1.51-.58,1.51-1.62v-41.57c3.36-5.44,7.99-8.11,13.78-8.11,7.87,0,12.04,4.86,12.04,13.55v36.01c0,1.16.58,1.74,1.74,1.74h9.96c1.16,0,1.74-.58,1.74-1.62v-36.36c0-2.32-.12-4.4-.46-6.14,3.59-4.63,7.76-7.18,13.9-7.18,7.3,0,12.39,4.4,12.39,13.55v36.01c0,1.16.58,1.74,1.74,1.74h9.96c1.04,0,1.74-.23,1.74-1.62v-36.59c0-17.95-11.35-25.82-24.43-25.82Z"/>
      <path class="cls-1" d="M630.87,474.54c-6.95,0-12.74,1.74-18.18,6.25v-22.93c0-1.04-.58-1.62-1.62-1.62h-10.19c-1.04,0-1.62.58-1.62,1.62v79.09c0,1.04.58,1.62,1.62,1.62h7.87c.93,0,1.51-.46,1.74-1.39l.93-4.17.81-.12c4.75,4.63,11.58,5.67,18.64,5.67,18.53,0,32.54-12.16,32.54-31.61s-13.67-32.42-32.54-32.42ZM630.87,526.76c-7.76,0-13.2-2.43-18.18-7.87v-24.09c4.98-5.1,9.96-7.53,18.18-7.53,11,0,19.22,7.64,19.22,19.69s-8.22,19.8-19.22,19.8Z"/>
      <path class="cls-1" d="M673.95,475.46h10.19c.9,0,1.62.73,1.62,1.62v59.87c0,.89-.73,1.62-1.62,1.62h-10.19c-.89,0-1.62-.73-1.62-1.62v-59.87c0-.89.73-1.62,1.62-1.62Z"/>
      <path class="cls-1" d="M679.13,456.48c-3.64,0-6.8,3.16-6.8,6.8s3.24,6.72,6.8,6.72,6.64-3.16,6.64-6.72-3.16-6.8-6.64-6.8Z"/>
      <path class="cls-1" d="M708.81,456.46h-10.19c-1.04,0-1.62.58-1.62,1.62v78.87c0,.93.81,1.62,1.62,1.62h10.19c1.04,0,1.62-.58,1.62-1.62v-78.87c0-1.04-.58-1.62-1.62-1.62Z"/>
      <path class="cls-1" d="M781.99,475.46h-12.62c-.69,0-1.16.35-1.39.93l-15.63,43.77h-.93l-18.76-43.77c-.23-.58-.69-.93-1.39-.93h-12.74c-.81,0-1.16.69-.81,1.27l26.98,58.48-.46,1.62c-1.27,4.52-4.17,6.02-8.22,6.02-1.62,0-3.01-.12-4.28-.35-1.04-.35-1.74.46-1.74,1.39v8.69c0,1.04.46,1.62,1.39,1.97,1.51.58,3.48.81,6.02.81,9.15,0,15.4-5.44,19.22-14.82l26.05-63.57c.35-.81.12-1.51-.69-1.51Z"/>
    </g>
    <g>
      <path class="cls-1" d="M788.86,526.41c-3.44,0-6.24,2.8-6.24,6.24s2.8,6.24,6.24,6.24,6.24-2.8,6.24-6.24-2.8-6.24-6.24-6.24ZM788.86,538.07c-2.99,0-5.42-2.43-5.42-5.42s2.43-5.42,5.42-5.42,5.42,2.43,5.42,5.42-2.43,5.42-5.42,5.42Z"/>
      <path class="cls-1" d="M789.02,534.7c-1.53,0-2.13-1.07-2.14-2.1,0-1.04.64-2.15,2.14-2.15.54,0,1.09.19,1.5.58l.78-.75c-.64-.63-1.44-.95-2.28-.95-2.24,0-3.3,1.65-3.29,3.27,0,1.61.98,3.2,3.29,3.2.9,0,1.72-.29,2.36-.92l-.8-.81c-.41.41-1.02.63-1.56.63Z"/>
    </g>
  </g>
</svg>